<?xml version="1.0" standalone="no"?>
<!DOCTYPE svg PUBLIC "-//W3C//DTD SVG 20010904//EN"
 "http://www.w3.org/TR/2001/REC-SVG-20010904/DTD/svg10.dtd">
<svg version="1.0" xmlns="http://www.w3.org/2000/svg"
 width="612.000000pt" height="612.000000pt" viewBox="0 0 612.000000 612.000000"
 preserveAspectRatio="xMidYMid meet">

<g transform="translate(0.000000,612.000000) scale(0.100000,-0.100000)"
fill="#000000" stroke="none">
<path d="M1039 5095 c-173 -47 -299 -193 -320 -368 -13 -112 -11 -2751 2
-2822 22 -119 101 -234 205 -298 94 -58 74 -57 964 -57 l817 0 7 171 c7 182
25 306 55 397 l19 56 -39 34 c-56 48 -73 85 -73 162 0 110 60 201 153 229 21
6 81 11 134 11 l96 0 77 128 c44 70 103 152 134 183 63 63 175 123 259 139 29
6 211 10 402 10 l349 0 0 814 c0 511 -4 833 -10 867 -31 165 -154 299 -311
340 -70 18 -123 19 -1473 18 -1101 -1 -1411 -4 -1447 -14z m1636 -635 c110 -6
232 -17 270 -25 203 -43 373 -201 442 -409 25 -76 27 -93 28 -261 0 -189 -5
-220 -56 -333 -17 -38 -68 -115 -109 -165 -28 -34 -131 -109 -190 -138 -125
-60 -199 -70 -580 -78 l-325 -6 -3 -427 -2 -428 -235 0 -235 0 0 1133 c0 624
3 1137 7 1140 10 11 762 8 988 -3z"/>
<path d="M2152 3759 l3 -324 155 -1 c215 -1 365 10 433 34 108 39 177 120 199
237 21 116 -27 238 -120 304 -15 11 -56 29 -90 40 -54 18 -96 22 -322 28
l-260 6 2 -324z"/>
<path d="M3487 2916 c-110 -46 -148 -86 -278 -298 l-84 -138 -132 0 c-123 0
-134 -2 -158 -23 -19 -16 -28 -35 -32 -67 -7 -65 18 -92 108 -120 l70 -21 -21
-32 c-41 -62 -81 -154 -96 -228 -13 -59 -17 -159 -21 -506 -5 -427 -4 -432 16
-452 20 -20 32 -21 184 -21 201 0 198 -2 199 121 0 46 2 88 4 94 3 7 283 9
859 7 l855 -2 0 -90 c0 -131 -1 -130 206 -130 l163 0 21 27 c22 28 22 29 17
428 -6 502 -20 598 -111 732 -14 20 -26 41 -26 45 0 3 24 14 53 24 113 37 138
66 118 136 -21 68 -46 78 -192 78 l-129 0 -24 38 c-13 20 -57 91 -97 157 -85
137 -136 192 -217 232 l-57 28 -570 2 -570 3 -58 -24z m1183 -111 c61 -21 110
-65 150 -132 19 -32 76 -125 128 -208 73 -117 92 -156 90 -180 l-3 -30 -924
-3 c-674 -1 -927 1 -937 9 -8 6 -14 19 -14 28 0 21 241 413 279 455 14 16 49
39 76 52 l50 24 531 0 c445 0 538 -2 574 -15z m-1374 -851 c71 -25 139 -56
152 -68 49 -48 29 -142 -36 -167 -16 -6 -86 -9 -172 -7 -161 3 -183 10 -221
71 -28 45 -22 127 12 163 28 31 74 53 110 54 15 0 84 -21 155 -46z m1833 28
c97 -49 106 -181 17 -245 -28 -20 -45 -22 -179 -25 -165 -4 -199 3 -222 49
-24 45 -19 91 13 122 30 29 258 115 307 116 17 1 45 -7 64 -17z m-681 -454
c16 -16 15 -99 0 -121 -12 -16 -42 -17 -353 -15 l-340 3 -3 59 c-2 32 -1 65 2
72 7 19 675 21 694 2z"/>
</g>
</svg>
