<?xml version="1.0" encoding="utf-8"?>
<!DOCTYPE svg PUBLIC "-//W3C//DTD SVG 20010904//EN" "http://www.w3.org/TR/2001/REC-SVG-20010904/DTD/svg10.dtd">
<svg version="1.0" xmlns="http://www.w3.org/2000/svg" width="628pt" height="628pt" viewBox="0 0 628 628" style="" preserveAspectRatio="xMidYMid meet">
<g fill="#0078C0FE" stroke="#0078C0FE">
<path d="M 76.250 78.347 C 74.463 78.934 73.000 79.771 73.000 80.207 C 73.000 80.643 72.438 81.001 71.750 81.001 C 69.969 81.003 65.792 84.972 63.817 88.540 C 58.748 97.699 59.030 85.345 59.015 298.929 C 59.004 446.147 59.298 498.280 60.154 500.929 C 62.439 508.004 64.233 511.224 67.719 514.512 C 74.945 521.328 68.466 521.000 195.938 521.000 L 311.000 521.000 311.006 501.750 C 311.012 479.198 312.538 471.443 317.930 466.564 C 319.042 465.557 319.669 464.273 319.322 463.712 C 318.975 463.150 319.136 462.966 319.680 463.302 C 320.224 463.638 322.993 461.731 325.834 459.063 C 331.088 454.131 331.101 453.000 325.905 453.000 C 323.829 453.000 320.489 451.344 318.096 449.129 C 317.191 448.291 316.615 445.923 316.615 443.038 C 316.615 438.961 317.092 437.854 320.113 434.909 C 322.037 433.034 324.257 431.351 325.046 431.170 C 325.835 430.988 326.765 430.380 327.113 429.818 C 328.031 428.332 347.622 428.222 349.094 429.694 C 349.997 430.597 350.589 430.554 351.636 429.507 C 352.386 428.757 353.000 427.629 353.000 427.000 C 353.000 426.371 353.679 425.178 354.509 424.348 C 355.339 423.518 355.763 422.425 355.450 421.919 C 355.138 421.414 355.359 421.000 355.941 421.000 C 356.523 421.000 357.000 420.293 357.000 419.429 C 357.000 418.564 357.679 417.178 358.509 416.348 C 359.339 415.518 359.763 414.425 359.450 413.919 C 359.138 413.414 359.359 413.000 359.941 413.000 C 360.523 413.000 361.000 412.138 361.000 411.083 C 361.000 410.029 361.416 409.017 361.925 408.833 C 362.434 408.650 362.996 407.825 363.175 407.000 C 363.354 406.175 363.801 405.271 364.170 404.991 C 364.538 404.710 364.988 403.842 365.170 403.061 C 365.351 402.279 366.271 400.708 367.213 399.570 C 368.155 398.431 368.996 397.050 369.082 396.500 C 369.244 395.468 374.857 392.552 381.000 390.308 C 383.692 389.325 398.174 389.027 443.750 389.015 L 503.000 389.000 503.000 241.559 C 503.000 144.344 502.659 93.908 502.000 93.500 C 501.450 93.160 501.000 92.009 501.000 90.941 C 501.000 89.873 500.622 89.000 500.161 89.000 C 499.699 89.000 498.803 87.862 498.169 86.472 C 497.536 85.081 496.246 83.648 495.303 83.286 C 494.360 82.924 492.819 81.969 491.879 81.164 C 486.918 76.917 492.550 77.024 281.000 77.156 C 141.350 77.243 78.502 77.608 76.250 78.347 M 304.000 123.061 C 317.243 124.261 322.346 125.059 323.450 126.102 C 323.972 126.596 325.570 127.000 327.000 127.000 C 328.430 127.000 330.028 127.358 330.550 127.796 C 331.073 128.234 333.300 129.165 335.500 129.867 C 339.618 131.179 351.723 136.852 353.500 138.303 C 354.413 139.048 357.200 140.885 362.500 144.236 C 365.981 146.436 382.486 163.382 383.942 166.250 C 384.710 167.763 385.712 169.000 386.169 169.000 C 386.626 169.000 387.000 169.590 387.000 170.311 C 387.000 171.033 387.788 172.513 388.750 173.600 C 389.713 174.688 390.646 176.236 390.825 177.039 C 391.004 177.843 391.566 178.650 392.075 178.833 C 392.584 179.017 393.000 180.029 393.000 181.083 C 393.000 182.138 393.369 183.000 393.819 183.000 C 394.270 183.000 395.251 185.250 396.000 188.000 C 396.749 190.750 397.730 193.000 398.181 193.000 C 398.631 193.000 399.000 194.350 399.000 196.000 C 399.000 197.650 399.405 199.000 399.899 199.000 C 400.394 199.000 401.052 200.913 401.361 203.250 C 401.671 205.588 402.485 211.775 403.170 217.000 C 405.007 231.002 404.504 250.028 402.032 260.000 C 399.987 268.253 398.758 272.596 398.071 274.000 C 397.667 274.825 396.712 277.638 395.950 280.250 C 395.187 282.863 394.212 285.000 393.782 285.000 C 393.352 285.000 393.000 285.900 393.000 287.000 C 393.000 288.100 392.662 289.000 392.248 289.000 C 391.835 289.000 390.372 291.138 388.998 293.750 C 387.624 296.363 385.729 299.400 384.787 300.500 C 383.845 301.600 383.148 302.725 383.239 303.000 C 383.330 303.275 380.635 306.425 377.249 310.000 C 373.863 313.575 371.084 316.922 371.074 317.437 C 371.064 317.953 370.339 318.480 369.463 318.608 C 368.588 318.737 367.113 319.668 366.186 320.678 C 365.259 321.688 363.263 323.149 361.750 323.926 C 360.238 324.702 359.000 325.712 359.000 326.169 C 359.000 326.626 358.410 327.000 357.689 327.000 C 356.967 327.000 355.504 327.788 354.438 328.750 C 351.953 330.992 344.237 335.000 342.405 335.000 C 341.632 335.000 341.000 335.375 341.000 335.833 C 341.000 336.292 340.438 336.709 339.750 336.760 C 339.063 336.811 336.475 337.607 334.000 338.528 C 327.739 340.857 319.360 343.000 316.510 343.000 C 315.195 343.000 313.840 343.450 313.500 344.000 C 313.104 344.641 297.825 345.000 270.948 345.000 L 229.014 345.000 228.757 410.250 L 228.500 475.500 193.750 475.763 L 159.000 476.026 159.000 299.013 L 159.000 122.000 226.750 122.100 C 264.013 122.155 298.775 122.588 304.000 123.061 "/></g>
<g fill="#000000FE" stroke="#000000FE">
<path d="M 380.000 397.722 C 376.266 399.125 372.896 402.287 373.489 403.833 C 373.828 404.716 373.779 405.112 373.379 404.712 C 372.527 403.861 366.959 413.569 366.617 416.500 C 366.489 417.600 365.993 418.572 365.514 418.660 C 365.036 418.748 361.462 425.030 357.572 432.619 C 353.683 440.209 349.938 446.587 349.250 446.792 C 348.366 447.057 348.000 445.690 348.000 442.119 C 348.000 436.111 346.629 435.000 339.215 435.000 C 333.317 435.000 328.307 436.547 325.250 439.313 C 320.255 443.833 323.297 446.200 335.822 447.538 C 342.360 448.236 343.898 449.447 342.443 452.750 C 342.020 453.713 341.634 454.950 341.586 455.500 C 341.539 456.050 340.825 456.520 340.000 456.545 C 339.175 456.570 338.607 457.117 338.738 457.759 C 338.869 458.402 338.397 458.706 337.690 458.435 C 336.396 457.938 331.284 462.582 331.750 463.831 C 331.888 464.199 331.596 464.500 331.103 464.500 C 329.081 464.500 321.885 471.258 322.421 472.654 C 322.732 473.465 322.541 473.834 321.987 473.492 C 319.477 471.941 318.960 479.201 319.393 509.886 C 319.639 527.273 320.214 546.153 320.670 551.840 C 321.441 561.444 321.699 562.351 324.306 564.590 C 326.989 566.895 327.738 567.000 341.491 567.000 C 355.951 567.000 361.756 566.032 360.406 563.847 C 359.974 563.149 360.128 562.961 360.795 563.373 C 362.622 564.503 364.000 560.501 364.000 554.066 L 364.000 548.000 451.500 548.000 L 539.000 548.000 539.000 554.444 C 539.000 559.812 539.403 561.357 541.411 563.694 L 543.822 566.500 559.777 566.817 C 575.528 567.130 575.770 567.102 578.616 564.657 C 581.316 562.337 581.553 561.521 582.330 551.840 C 582.786 546.153 583.361 527.273 583.607 509.886 C 584.040 479.201 583.523 471.941 581.013 473.492 C 580.465 473.831 580.265 473.473 580.565 472.690 C 580.900 471.819 579.167 469.652 576.054 467.045 C 573.274 464.718 570.947 462.968 570.882 463.157 C 570.816 463.346 570.806 463.194 570.858 462.819 C 571.018 461.682 564.891 456.949 563.984 457.510 C 563.248 457.965 561.728 456.472 561.429 455.000 C 561.373 454.725 560.980 453.713 560.557 452.750 C 559.102 449.447 560.640 448.236 567.178 447.538 C 579.703 446.200 582.745 443.833 577.750 439.313 C 574.693 436.547 569.683 435.000 563.785 435.000 C 556.371 435.000 555.000 436.111 555.000 442.119 C 555.000 445.693 554.635 447.056 553.750 446.787 C 553.063 446.579 548.527 438.662 543.670 429.194 C 538.289 418.704 534.421 412.240 533.766 412.645 C 533.153 413.024 532.979 412.843 533.362 412.223 C 534.195 410.875 530.979 403.895 529.847 404.595 C 529.394 404.875 529.263 404.478 529.557 403.712 C 530.235 401.946 527.480 399.585 525.889 400.568 C 525.131 401.037 524.953 400.885 525.406 400.153 C 525.842 399.447 525.098 398.607 523.495 397.998 C 520.723 396.944 382.776 396.678 380.000 397.722 M 440.000 407.000 L 441.243 410.000 451.728 410.000 C 460.794 410.000 462.133 409.790 461.618 408.448 C 461.291 407.594 461.435 407.151 461.939 407.463 C 462.444 407.774 463.144 407.123 463.495 406.015 C 464.116 404.059 464.932 404.001 491.317 404.035 C 511.955 404.062 519.075 404.390 520.890 405.395 C 522.489 406.282 526.372 412.805 532.626 425.110 C 537.767 435.224 541.979 443.838 541.987 444.250 C 541.994 444.663 501.275 445.000 451.500 445.000 C 401.725 445.000 361.006 444.663 361.013 444.250 C 361.021 443.838 365.233 435.224 370.374 425.110 C 376.628 412.805 380.511 406.282 382.110 405.395 C 383.924 404.390 391.036 404.062 411.629 404.035 L 438.757 404.000 440.000 407.000 M 511.953 496.671 C 514.285 499.790 516.423 502.940 516.704 503.671 C 517.125 504.768 505.777 505.000 451.675 505.000 L 386.136 505.000 386.465 502.250 C 386.646 500.738 387.273 499.607 387.858 499.737 C 388.443 499.867 390.311 497.955 392.009 495.487 L 395.096 491.000 451.404 491.000 L 507.712 491.000 511.953 496.671 M 510.939 527.426 C 511.590 528.210 511.982 530.798 511.811 533.176 L 511.500 537.500 452.064 537.758 C 405.177 537.962 392.459 537.750 391.829 536.758 C 390.607 534.833 390.851 528.549 392.200 527.200 C 393.106 526.294 407.662 526.000 451.578 526.000 C 500.731 526.000 509.939 526.221 510.939 527.426 M 573.171 477.655 C 574.544 478.897 575.000 480.762 575.000 485.132 C 575.000 494.122 574.838 494.174 548.261 493.805 L 526.339 493.500 522.419 490.503 C 520.264 488.855 518.125 487.505 517.667 487.503 C 517.208 487.501 517.104 487.229 517.435 486.899 C 517.765 486.568 517.355 484.993 516.524 483.399 C 512.753 476.168 513.384 476.000 544.371 476.000 C 568.065 476.000 571.565 476.201 573.171 477.655 M 387.306 478.122 C 388.740 480.397 385.377 486.569 380.589 490.447 L 376.820 493.500 354.818 493.805 C 328.238 494.173 328.000 494.098 328.000 485.306 C 328.000 475.595 326.877 475.926 358.811 476.234 C 382.878 476.467 386.410 476.701 387.306 478.122 M 518.000 507.171 C 518.000 507.815 517.255 509.165 516.345 510.171 C 514.775 511.906 511.453 512.000 451.674 512.000 C 394.440 512.000 388.490 511.848 386.829 510.345 C 381.970 505.948 381.202 506.000 451.500 506.000 C 501.649 506.000 518.000 506.288 518.000 507.171 M 569.365 522.073 C 572.778 524.757 573.058 531.385 569.927 535.365 L 567.855 538.000 550.396 538.000 C 535.277 538.000 532.855 537.784 532.320 536.392 C 531.499 534.252 534.606 524.573 536.665 522.858 C 537.634 522.051 541.987 521.267 547.398 520.925 C 565.335 519.793 566.548 519.857 569.365 522.073 M 365.695 522.600 C 368.153 524.139 371.659 533.839 370.680 536.392 C 370.146 537.784 367.729 538.000 352.686 538.000 C 332.653 538.000 332.068 537.759 331.242 529.171 C 330.821 524.781 331.042 524.112 333.580 522.116 C 336.264 520.005 336.964 519.939 349.942 520.568 C 358.662 520.992 364.283 521.717 365.695 522.600 M 504.234 486.971 L 507.500 489.941 451.563 489.971 L 395.626 490.000 398.500 487.000 L 401.374 484.000 451.171 484.000 L 500.968 484.000 504.234 486.971 "/></g>
<g fill="#0078C0FE" stroke="#0078C0FE">
<path d="M 228.481 178.191 C 228.206 178.911 228.097 204.475 228.240 235.000 L 228.500 290.500 254.500 290.814 C 279.382 291.115 291.815 290.252 296.236 287.917 C 297.191 287.413 298.852 287.000 299.927 287.000 C 301.002 287.000 302.160 286.550 302.500 286.000 C 302.840 285.450 303.991 285.000 305.059 285.000 C 306.127 285.000 307.000 284.550 307.000 284.000 C 307.000 283.450 307.590 283.000 308.311 283.000 C 309.033 283.000 310.608 282.082 311.811 280.961 C 313.015 279.840 314.000 279.249 314.000 279.648 C 314.000 280.047 315.334 279.096 316.964 277.534 C 318.595 275.972 319.650 274.243 319.310 273.692 C 318.970 273.142 319.150 272.975 319.712 273.322 C 321.452 274.397 325.960 267.520 329.754 258.000 C 330.303 256.625 331.257 254.241 331.875 252.703 C 333.656 248.274 333.317 219.504 331.420 214.000 C 329.284 207.805 324.928 199.000 323.999 199.000 C 323.578 199.000 322.998 198.100 322.710 197.000 C 322.423 195.900 321.444 195.000 320.535 195.000 C 319.626 195.000 319.138 194.586 319.451 194.080 C 319.763 193.574 318.777 192.229 317.260 191.091 C 315.742 189.953 314.050 188.668 313.500 188.235 C 310.598 185.953 304.643 183.000 302.943 183.000 C 301.874 183.000 301.000 182.550 301.000 182.000 C 301.000 181.450 299.740 181.000 298.200 181.000 C 296.660 181.000 294.973 180.594 294.450 180.097 C 292.751 178.482 283.974 177.854 256.241 177.364 C 234.359 176.977 228.884 177.140 228.481 178.191 "/></g>
<g fill="#C6FEFEFE" stroke="#C6FEFEFE">
<path d="M 48.041 88.218 C 45.314 95.506 45.150 95.765 44.997 93.000 C 44.870 90.696 44.792 90.657 44.000 92.500 C 42.992 94.846 42.703 501.309 43.707 505.000 L 44.387 507.500 45.033 505.000 C 45.656 502.586 45.714 502.621 46.731 506.000 C 47.309 507.925 48.105 510.288 48.499 511.250 C 48.925 512.294 48.767 513.000 48.107 513.000 C 47.498 513.000 47.000 512.127 47.000 511.059 C 47.000 509.991 46.550 508.840 46.000 508.500 C 44.179 507.375 44.959 510.144 48.150 516.130 C 50.767 521.039 51.639 521.932 53.301 521.404 C 54.839 520.916 55.163 521.132 54.702 522.334 C 54.286 523.418 54.547 523.727 55.551 523.342 C 56.348 523.036 57.000 523.284 57.000 523.893 C 57.000 524.502 56.460 525.000 55.800 525.000 C 54.967 525.000 54.919 525.319 55.642 526.042 C 56.366 526.766 57.054 526.639 57.892 525.630 C 59.091 524.186 58.176 522.802 50.833 514.949 C 49.917 513.969 49.372 512.962 49.622 512.711 C 49.873 512.460 49.391 510.285 48.551 507.878 C 47.201 504.008 47.022 479.770 47.007 298.889 C 46.992 118.613 47.171 93.768 48.506 89.983 C 50.276 84.966 49.855 83.369 48.041 88.218 M 51.608 516.750 C 53.824 519.670 53.236 521.863 50.967 519.139 C 49.002 516.781 48.431 515.000 49.640 515.000 C 49.992 515.000 50.877 515.788 51.608 516.750 "/></g>
<g fill="#C6FEFEFE" stroke="#C6FEFEFE">
<path d="M 503.100 241.750 L 503.000 389.000 443.250 389.015 C 410.068 389.024 382.875 389.427 382.093 389.921 C 381.261 390.448 406.061 390.867 442.843 390.946 L 505.000 391.081 504.900 245.291 C 504.845 165.106 504.440 98.375 504.000 97.000 C 503.560 95.625 503.155 160.763 503.100 241.750 "/></g>
<g fill="#C6FEFEFE" stroke="#C6FEFEFE">
<path d="M 159.000 299.013 L 159.000 476.026 193.750 475.763 L 228.500 475.500 228.757 410.250 C 228.928 366.934 228.676 345.000 228.007 345.000 C 227.341 345.000 227.000 367.022 227.000 410.000 L 227.000 475.000 193.500 475.000 L 160.000 475.000 160.000 299.007 L 160.000 123.014 228.750 122.750 L 297.500 122.486 228.250 122.243 L 159.000 122.000 159.000 299.013 "/></g>
<g fill="#0078C0FE" stroke="#0078C0FE">
<path d="M 78.500 62.000 C 77.376 62.483 166.302 62.859 281.500 62.859 C 396.698 62.859 485.624 62.483 484.500 62.000 C 481.886 60.877 81.114 60.877 78.500 62.000 "/></g>
<g fill="#0078C0FE" stroke="#0078C0FE">
<path d="M 489.000 64.189 C 497.745 67.877 501.120 70.014 506.133 75.039 C 509.231 78.144 512.073 81.656 512.450 82.843 C 512.827 84.029 513.554 85.000 514.067 85.000 C 514.580 85.000 515.000 86.098 515.000 87.441 C 515.000 88.784 515.450 90.160 516.000 90.500 C 516.659 90.907 517.034 141.202 517.100 237.809 C 517.155 318.489 517.560 385.625 518.000 387.000 C 518.440 388.375 518.841 323.350 518.889 242.500 C 518.964 118.656 518.756 94.768 517.568 90.852 C 516.146 86.168 513.259 79.925 512.087 79.000 C 511.739 78.725 510.657 77.248 509.683 75.718 C 508.709 74.188 507.452 73.221 506.889 73.569 C 506.326 73.917 505.632 73.310 505.347 72.220 C 505.062 71.130 503.073 69.397 500.926 68.369 C 498.779 67.341 497.018 66.163 497.011 65.750 C 497.005 65.338 496.127 65.000 495.059 65.000 C 493.991 65.000 492.840 64.550 492.500 64.000 C 492.160 63.450 490.671 63.030 489.191 63.068 L 486.500 63.135 489.000 64.189 "/></g>
<g fill="#C6FEFEFE" stroke="#C6FEFEFE">
<path d="M 68.314 63.541 C 63.758 65.552 59.539 68.882 63.448 67.382 C 64.302 67.054 65.000 67.122 65.000 67.533 C 65.000 68.623 61.726 70.931 60.128 70.968 C 58.964 70.995 58.964 70.741 60.128 69.298 C 61.409 67.708 61.347 67.701 59.180 69.191 C 57.601 70.277 57.279 70.926 58.171 71.224 C 59.181 71.560 59.100 72.043 57.815 73.327 C 56.899 74.244 55.534 74.758 54.782 74.470 C 52.576 73.623 44.306 86.613 45.325 89.325 C 45.575 89.989 46.072 89.631 46.468 88.500 C 48.244 83.436 50.282 79.303 52.085 77.108 C 54.866 73.724 55.665 75.257 53.041 78.942 C 51.844 80.624 51.344 82.000 51.932 82.000 C 52.519 82.000 53.000 81.586 53.000 81.079 C 53.000 79.594 61.939 71.083 65.354 69.317 C 68.214 67.838 68.313 67.632 66.493 66.956 C 64.593 66.249 64.586 66.180 66.351 65.462 C 67.376 65.045 68.492 65.159 68.851 65.718 C 69.227 66.302 70.341 66.393 71.500 65.934 C 73.274 65.230 73.296 65.133 71.691 65.070 C 69.172 64.972 70.634 63.000 73.226 63.000 C 74.385 63.000 75.096 63.238 74.805 63.528 C 74.514 63.819 165.902 64.060 277.888 64.065 C 412.592 64.070 483.023 64.418 486.000 65.092 C 488.475 65.653 491.400 66.199 492.500 66.305 L 494.500 66.499 492.500 65.666 C 486.166 63.028 486.309 63.140 489.191 63.068 C 490.671 63.030 492.160 63.450 492.500 64.000 C 492.840 64.550 493.991 65.000 495.059 65.000 C 496.127 65.000 497.000 65.450 497.000 66.000 C 497.000 66.550 496.460 67.000 495.800 67.000 C 495.140 67.000 497.347 68.999 500.706 71.443 C 504.064 73.886 507.175 76.474 507.619 77.193 C 508.063 77.912 508.218 78.232 507.964 77.904 C 507.709 77.576 508.057 76.636 508.738 75.816 C 509.753 74.593 509.528 73.906 507.488 71.988 C 505.415 70.042 505.000 69.932 505.000 71.334 C 505.000 72.767 504.702 72.831 503.000 71.768 C 500.558 70.243 500.386 68.806 502.694 69.206 C 505.063 69.617 498.890 65.270 494.500 63.436 C 490.475 61.754 481.042 60.339 484.500 61.936 C 485.731 62.504 407.644 62.859 281.500 62.859 C 168.378 62.859 77.396 62.479 78.500 62.011 C 80.082 61.340 79.755 61.178 76.935 61.237 C 74.974 61.277 71.095 62.314 68.314 63.541 "/></g>
<g fill="#C6FEFEFE" stroke="#C6FEFEFE">
<path d="M 58.606 526.585 C 58.211 527.613 58.644 528.721 59.733 529.470 C 61.327 530.567 61.368 530.506 60.156 528.843 C 59.031 527.300 59.031 527.005 60.156 527.032 C 60.895 527.049 62.398 527.742 63.495 528.571 C 65.109 529.791 65.227 530.242 64.110 530.932 C 62.549 531.896 64.828 533.475 71.000 535.705 C 75.315 537.264 80.280 537.473 78.000 536.000 C 77.027 535.371 117.682 535.025 193.750 535.015 C 270.925 535.005 311.000 535.340 311.000 535.996 C 311.000 536.649 272.086 537.080 197.750 537.250 L 84.500 537.509 198.750 537.754 C 312.415 537.999 313.000 537.990 313.000 536.000 C 313.000 534.012 312.295 533.999 196.250 533.886 C 132.038 533.823 78.252 533.624 76.727 533.444 C 75.171 533.260 74.209 533.530 74.536 534.058 C 75.423 535.493 72.683 535.185 68.372 533.366 C 65.140 532.002 64.814 531.620 66.397 531.052 C 68.035 530.464 67.763 530.041 64.397 527.951 C 59.091 524.657 59.325 524.712 58.606 526.585 "/></g>
<g fill="#C6FEFEFE" stroke="#C6FEFEFE">
<path d="M 392.009 495.487 C 390.311 497.955 388.443 499.867 387.858 499.737 C 387.273 499.607 386.646 500.738 386.465 502.250 L 386.136 505.000 451.568 505.000 C 487.556 505.000 517.000 504.663 517.000 504.250 C 517.000 503.838 487.742 503.500 451.981 503.500 L 386.962 503.500 388.538 501.250 L 390.113 499.000 451.228 499.000 C 507.999 499.000 512.486 499.124 514.355 500.750 C 515.462 501.713 515.048 500.836 513.434 498.801 C 511.820 496.767 510.613 495.529 510.750 496.051 C 510.906 496.642 488.526 497.000 451.477 497.000 L 391.954 497.000 393.592 494.500 L 395.230 492.000 451.415 492.000 C 494.949 492.000 507.916 492.281 509.002 493.250 C 510.194 494.313 510.206 494.239 509.079 492.750 C 507.846 491.120 503.902 491.000 451.426 491.000 L 395.096 491.000 392.009 495.487 "/></g>
<g fill="#0078C0FE" stroke="#0078C0FE">
<path d="M 78.000 536.000 C 80.094 537.354 311.000 537.354 311.000 536.000 C 311.000 535.339 271.260 535.005 193.750 535.015 C 117.682 535.025 77.027 535.371 78.000 536.000 "/></g>
<g fill="#C6FEFEFE" stroke="#C6FEFEFE">
<path d="M 510.658 77.551 C 510.964 78.348 510.710 79.000 510.094 79.000 C 509.479 79.000 510.106 80.791 511.487 82.980 C 512.869 85.169 514.045 87.532 514.100 88.230 C 514.155 88.929 514.526 88.375 514.925 87.000 C 515.568 84.783 515.840 85.141 517.325 90.154 C 518.860 95.336 518.992 108.054 518.900 242.654 C 518.845 324.246 518.424 388.389 517.954 387.000 C 517.131 384.568 517.113 384.580 517.304 387.423 C 517.412 389.030 518.070 390.533 518.766 390.762 C 519.784 391.096 519.980 361.762 519.766 240.839 L 519.500 90.500 516.050 83.780 C 514.153 80.085 512.038 76.845 511.351 76.581 C 510.583 76.286 510.316 76.659 510.658 77.551 M 513.839 81.547 C 515.223 84.584 515.262 85.000 514.161 85.000 C 513.434 85.000 511.000 80.729 511.000 79.453 C 511.000 78.014 512.852 79.379 513.839 81.547 "/></g>
<g fill="#C6FEFEFE" stroke="#C6FEFEFE">
<path d="M 313.797 473.000 C 311.674 477.626 311.011 484.459 311.006 501.746 L 311.000 520.992 195.750 521.250 L 80.500 521.508 196.699 521.754 L 312.897 522.000 313.284 498.750 C 313.497 485.963 313.854 474.600 314.078 473.500 C 314.345 472.193 314.247 472.020 313.797 473.000 "/></g>
<g fill="#C6FEFEFE" stroke="#C6FEFEFE">
<path d="M 227.667 176.667 C 227.300 177.033 227.000 203.133 227.000 234.667 L 227.000 292.000 254.750 291.775 L 282.500 291.549 255.500 291.025 L 228.500 290.500 228.500 234.000 L 228.500 177.500 252.500 176.973 L 276.500 176.445 252.417 176.223 C 239.171 176.100 228.033 176.300 227.667 176.667 "/></g>
<g fill="#C6FEFEFE" stroke="#C6FEFEFE">
<path d="M 364.185 553.750 L 364.370 559.500 364.737 554.250 L 365.105 549.000 451.500 549.000 L 537.895 549.000 538.263 554.250 L 538.630 559.500 538.815 553.750 L 539.000 548.000 451.500 548.000 L 364.000 548.000 364.185 553.750 "/></g>
<g fill="#C6FEFEFE" stroke="#C6FEFEFE">
<path d="M 361.000 444.250 C 361.000 444.663 401.725 445.000 451.500 445.000 C 501.275 445.000 542.000 444.663 542.000 444.250 C 542.000 443.838 501.275 443.500 451.500 443.500 C 401.725 443.500 361.000 443.838 361.000 444.250 "/></g>
<g fill="#C6FEFEFE" stroke="#C6FEFEFE">
<path d="M 380.383 396.608 C 379.769 396.866 411.105 397.052 450.018 397.020 C 520.225 396.962 527.102 397.257 525.413 400.248 C 524.893 401.170 525.020 401.212 525.896 400.408 C 526.805 399.572 526.686 398.984 525.389 397.908 C 523.971 396.730 512.056 396.470 452.597 396.319 C 413.494 396.219 380.998 396.349 380.383 396.608 "/></g>
<g fill="#C6FEFEFE" stroke="#C6FEFEFE">
<path d="M 392.200 527.200 C 391.540 527.860 391.068 530.223 391.150 532.450 L 391.300 536.500 391.900 532.000 L 392.500 527.500 451.500 527.500 L 510.500 527.500 510.805 532.250 C 510.984 535.045 510.675 537.062 510.055 537.150 C 509.475 537.233 509.563 537.345 510.250 537.400 C 511.923 537.534 512.492 529.298 510.939 527.426 C 509.939 526.221 500.731 526.000 451.578 526.000 C 407.662 526.000 393.106 526.294 392.200 527.200 "/></g>
<g fill="#C6FEFEFE" stroke="#C6FEFEFE">
<path d="M 385.015 507.095 C 385.007 507.972 385.823 509.435 386.829 510.345 C 388.490 511.848 394.440 512.000 451.674 512.000 C 511.453 512.000 514.775 511.906 516.345 510.171 C 517.255 509.165 517.993 507.703 517.985 506.921 C 517.977 506.140 517.401 506.625 516.706 508.000 L 515.441 510.500 451.500 510.500 L 387.559 510.500 386.294 508.000 C 385.505 506.439 385.024 506.099 385.015 507.095 "/></g>
<g fill="#C6FEFEFE" stroke="#C6FEFEFE">
<path d="M 318.645 509.500 C 318.861 539.928 319.446 555.803 320.533 560.722 C 321.065 563.131 324.723 567.009 326.439 566.985 C 327.022 566.976 326.825 566.533 326.000 566.000 C 325.175 565.467 324.893 565.024 325.372 565.015 C 325.852 565.007 325.689 564.330 325.009 563.511 C 324.329 562.692 323.388 562.260 322.916 562.552 C 320.936 563.775 320.137 552.509 319.151 509.500 L 318.418 477.500 318.645 509.500 "/></g>
<g fill="#C6FEFEFE" stroke="#C6FEFEFE">
<path d="M 381.662 405.790 L 378.824 407.500 381.964 406.250 C 384.198 405.361 392.730 405.000 411.527 405.000 L 437.949 405.000 439.518 408.035 L 441.087 411.069 451.294 410.745 L 461.500 410.422 451.371 410.211 L 441.243 410.000 440.000 407.000 L 438.757 404.000 411.629 404.040 C 387.853 404.075 384.149 404.291 381.662 405.790 "/></g>
<g fill="#C6FEFEFE" stroke="#C6FEFEFE">
<path d="M 516.079 477.404 C 514.863 478.870 515.542 483.599 517.108 484.567 C 517.595 484.868 517.527 483.886 516.956 482.385 C 514.892 476.956 514.666 477.000 544.412 477.000 C 571.670 477.000 571.899 477.018 573.443 479.223 C 574.299 480.445 575.000 480.965 575.000 480.377 C 575.000 479.790 574.177 478.565 573.171 477.655 C 571.564 476.201 568.060 476.000 544.294 476.000 C 522.289 476.000 517.028 476.262 516.079 477.404 "/></g>
<g fill="#C6FEFEFE" stroke="#C6FEFEFE">
<path d="M 329.669 477.813 C 328.751 478.828 328.000 480.060 328.000 480.551 C 328.000 481.043 328.701 480.445 329.557 479.223 C 331.101 477.018 331.333 477.000 358.498 477.000 C 375.470 477.000 386.114 477.376 386.493 477.989 C 386.829 478.533 386.747 480.445 386.310 482.239 L 385.516 485.500 386.836 482.500 C 389.438 476.586 389.177 476.528 358.811 476.234 C 333.189 475.987 331.226 476.093 329.669 477.813 "/></g>
<g fill="#0078C0FE" stroke="#0078C0FE">
<path d="M 62.002 68.177 C 55.921 72.386 50.512 78.471 48.458 83.415 C 47.524 85.662 46.320 88.453 45.782 89.619 C 45.243 90.784 44.995 92.584 45.229 93.619 C 45.525 94.925 46.007 94.272 46.804 91.480 C 48.164 86.722 53.796 77.095 57.135 73.819 C 58.436 72.544 60.738 70.861 62.250 70.081 C 63.763 69.301 65.000 68.288 65.000 67.831 C 65.000 67.374 65.900 67.000 67.000 67.000 C 68.100 67.000 69.000 66.550 69.000 66.000 C 69.000 64.240 66.621 64.980 62.002 68.177 "/></g>
<g fill="#C6FEFEFE" stroke="#C6FEFEFE">
<path d="M 380.660 489.458 L 376.819 492.500 354.463 492.803 C 333.035 493.093 332.020 493.020 330.053 491.053 C 328.924 489.924 328.000 489.424 328.000 489.943 C 328.000 490.462 329.000 491.587 330.223 492.443 C 332.062 493.732 336.045 494.000 353.321 494.000 C 375.683 494.000 378.812 493.426 382.722 488.608 C 383.944 487.102 383.299 487.368 380.660 489.458 "/></g>
<g fill="#C6FEFEFE" stroke="#C6FEFEFE">
<path d="M 333.237 234.000 C 333.237 243.544 333.558 249.235 334.000 247.500 C 334.420 245.850 334.763 239.775 334.763 234.000 C 334.763 228.225 334.420 222.150 334.000 220.500 C 333.558 218.765 333.237 224.456 333.237 234.000 "/></g>
<g fill="#C6FEFEFE" stroke="#C6FEFEFE">
<path d="M 573.391 490.745 C 572.408 492.305 569.804 492.560 549.893 493.038 L 527.500 493.575 549.027 493.788 C 567.340 493.968 570.895 493.762 572.830 492.407 C 574.081 491.530 574.968 490.403 574.800 489.901 C 574.633 489.400 573.999 489.779 573.391 490.745 "/></g>
<g fill="#C6FEFEFE" stroke="#C6FEFEFE">
<path d="M 78.737 76.781 C 78.481 76.936 77.284 77.253 76.079 77.485 C 72.485 78.177 67.282 81.856 63.954 86.058 C 62.237 88.226 61.120 90.000 61.473 90.000 C 61.825 90.000 61.413 91.000 60.557 92.223 C 59.701 93.445 59.030 95.582 59.068 96.973 L 59.135 99.500 60.148 97.000 C 64.247 86.886 68.156 81.360 70.284 82.675 C 70.873 83.039 71.006 82.818 70.595 82.155 C 70.173 81.470 70.517 81.000 71.441 81.000 C 72.298 81.000 73.000 80.550 73.000 80.000 C 73.000 79.450 73.843 79.000 74.873 79.000 C 75.904 79.000 77.299 78.438 77.975 77.750 C 78.651 77.063 78.994 76.627 78.737 76.781 "/></g>
<g fill="#C6FEFEFE" stroke="#C6FEFEFE">
<path d="M 340.500 435.000 L 345.500 435.686 341.000 436.070 C 336.865 436.422 336.946 436.457 342.000 436.493 L 347.500 436.533 347.805 441.832 C 348.164 448.084 349.606 448.277 352.362 442.443 L 354.224 438.500 351.862 442.500 L 349.500 446.500 349.196 441.769 C 348.818 435.880 346.473 433.933 340.027 434.157 L 335.500 434.314 340.500 435.000 "/></g>
<g fill="#C6FEFEFE" stroke="#C6FEFEFE">
<path d="M 403.233 233.500 C 403.235 241.440 403.534 245.332 404.000 243.500 C 405.037 239.425 405.067 229.382 404.057 224.500 C 403.459 221.605 403.231 224.092 403.233 233.500 "/></g>
<g fill="#C6FEFEFE" stroke="#C6FEFEFE">
<path d="M 363.057 145.750 C 363.088 146.163 365.338 148.194 368.057 150.265 C 372.611 153.734 384.165 167.113 385.257 170.182 C 385.515 170.907 386.058 171.192 386.464 170.816 C 386.869 170.440 386.256 169.118 385.101 167.878 C 383.945 166.637 383.000 165.194 383.000 164.670 C 383.000 163.623 364.672 145.000 363.641 145.000 C 363.288 145.000 363.026 145.338 363.057 145.750 "/></g>
<g fill="#0078C0FE" stroke="#0078C0FE">
<path d="M 57.737 525.596 C 56.815 526.519 61.812 530.316 67.239 532.817 C 72.259 535.129 75.527 535.662 74.500 534.000 C 74.160 533.450 72.784 533.000 71.441 533.000 C 70.098 533.000 69.000 532.550 69.000 532.000 C 69.000 531.450 68.100 531.000 67.000 531.000 C 65.900 531.000 65.000 530.626 65.000 530.169 C 65.000 529.712 63.763 528.700 62.250 527.921 C 60.738 527.141 59.244 526.158 58.932 525.737 C 58.619 525.315 58.082 525.252 57.737 525.596 "/></g>
<g fill="#C6FEFEFE" stroke="#C6FEFEFE">
<path d="M 582.702 542.333 C 582.316 543.340 581.993 547.839 581.985 552.332 C 581.976 556.824 581.533 561.175 581.000 562.000 C 580.467 562.825 580.024 563.107 580.015 562.628 C 580.007 562.148 579.330 562.311 578.511 562.991 C 576.789 564.420 577.427 566.157 579.397 565.401 C 581.817 564.472 582.826 560.404 583.117 550.392 C 583.275 544.953 583.089 541.326 582.702 542.333 "/></g>
<g fill="#C6FEFEFE" stroke="#C6FEFEFE">
<path d="M 334.500 337.179 C 332.850 337.733 327.675 339.234 323.000 340.515 C 318.325 341.796 315.670 342.879 317.101 342.922 C 318.531 342.965 321.006 342.597 322.601 342.104 C 324.195 341.611 327.975 340.475 331.000 339.579 C 334.025 338.684 337.175 337.519 338.000 336.991 C 339.880 335.788 338.410 335.866 334.500 337.179 "/></g>
<g fill="#C6FEFEFE" stroke="#C6FEFEFE">
<path d="M 331.464 253.771 C 331.067 255.570 330.350 257.284 329.871 257.580 C 329.392 257.876 329.000 259.018 329.000 260.118 C 329.000 261.375 328.571 261.853 327.845 261.405 C 327.197 261.004 326.960 261.126 327.305 261.685 C 327.643 262.232 327.037 264.326 325.958 266.340 C 324.879 268.353 324.414 270.000 324.925 270.000 C 326.658 270.000 333.521 253.924 332.694 251.801 C 332.415 251.085 331.862 251.972 331.464 253.771 "/></g>
<g fill="#C6FEFEFE" stroke="#C6FEFEFE">
<path d="M 364.500 404.390 C 363.950 405.043 363.354 406.236 363.175 407.039 C 362.996 407.843 362.434 408.650 361.925 408.833 C 361.416 409.017 361.000 410.029 361.000 411.083 C 361.000 412.138 360.523 413.000 359.941 413.000 C 359.359 413.000 359.138 413.414 359.450 413.919 C 359.763 414.425 359.339 415.518 358.509 416.348 C 357.679 417.178 357.000 418.564 357.000 419.429 C 357.000 420.293 356.590 421.000 356.088 421.000 C 355.587 421.000 355.297 421.788 355.443 422.750 C 355.589 423.713 358.052 419.840 360.916 414.145 C 365.807 404.420 366.839 401.611 364.500 404.390 "/></g>
<g fill="#C6FEFEFE" stroke="#C6FEFEFE">
<path d="M 401.169 256.000 C 399.527 266.478 399.167 270.935 400.319 266.500 C 400.748 264.850 401.560 261.925 402.123 260.000 C 402.686 258.075 403.001 254.475 402.823 252.000 C 402.532 247.941 402.370 248.333 401.169 256.000 "/></g>
<g fill="#C6FEFEFE" stroke="#C6FEFEFE">
<path d="M 555.191 436.270 C 554.612 436.968 553.994 439.555 553.819 442.020 L 553.500 446.500 550.636 441.500 L 547.771 436.500 550.136 441.449 C 553.389 448.258 555.000 448.484 555.000 442.133 C 555.000 438.394 555.450 436.837 556.750 436.080 C 557.713 435.519 557.993 435.047 557.372 435.030 C 556.752 435.014 555.771 435.571 555.191 436.270 "/></g>
<g fill="#C6FEFEFE" stroke="#C6FEFEFE">
<path d="M 333.583 522.113 C 331.288 523.919 330.951 524.830 331.273 528.363 L 331.651 532.500 331.825 528.372 C 332.051 523.041 333.843 521.643 341.401 520.902 L 347.500 520.305 341.885 520.152 C 337.527 520.034 335.668 520.473 333.583 522.113 "/></g>
<g fill="#C6FEFEFE" stroke="#C6FEFEFE">
<path d="M 385.848 297.249 C 383.840 300.137 381.045 303.831 379.639 305.457 C 378.232 307.083 377.260 308.594 377.480 308.813 C 377.975 309.308 383.149 304.214 382.773 303.603 C 382.623 303.359 383.400 302.110 384.500 300.826 C 385.600 299.542 387.175 297.031 388.000 295.245 C 388.956 293.176 388.176 293.902 385.848 297.249 "/></g>
<g fill="#C6FEFEFE" stroke="#C6FEFEFE">
<path d="M 302.500 344.000 C 299.055 344.617 299.498 344.736 305.691 344.858 C 309.646 344.936 313.160 344.550 313.500 344.000 C 314.196 342.874 308.787 342.874 302.500 344.000 "/></g>
<g fill="#C6FEFEFE" stroke="#C6FEFEFE">
<path d="M 322.006 272.739 C 321.328 273.420 320.305 273.688 319.732 273.334 C 319.160 272.981 318.970 273.142 319.310 273.692 C 319.650 274.243 318.595 275.972 316.964 277.534 C 315.334 279.096 314.000 280.047 314.000 279.648 C 314.000 279.249 313.015 279.840 311.811 280.961 C 310.608 282.082 309.033 283.000 308.311 283.000 C 307.590 283.000 307.000 283.450 307.000 284.000 C 307.000 284.550 307.256 285.000 307.570 285.000 C 308.988 285.000 316.823 278.864 319.869 275.367 C 321.722 273.240 322.684 272.058 322.006 272.739 "/></g>
<g fill="#0078C0FE" stroke="#0078C0FE">
<path d="M 49.000 515.865 C 49.000 516.730 52.288 521.287 54.776 523.869 C 55.502 524.622 56.371 524.962 56.708 524.625 C 57.045 524.288 56.458 523.222 55.403 522.256 C 54.349 521.290 52.851 519.263 52.074 517.750 C 50.719 515.110 49.000 514.057 49.000 515.865 "/></g>
<g fill="#C6FEFEFE" stroke="#C6FEFEFE">
<path d="M 59.351 501.623 C 59.828 505.049 62.731 511.716 64.122 512.575 C 65.466 513.406 65.187 512.394 63.000 508.500 C 61.900 506.542 60.993 504.165 60.985 503.220 C 60.976 502.274 60.508 500.825 59.943 500.000 C 59.168 498.867 59.023 499.265 59.351 501.623 "/></g>
<g fill="#C6FEFEFE" stroke="#C6FEFEFE">
<path d="M 393.250 283.362 C 389.570 291.133 389.400 291.743 391.500 289.643 C 392.325 288.818 393.000 287.436 393.000 286.571 C 393.000 285.707 393.394 285.000 393.875 285.000 C 394.356 285.000 395.106 283.538 395.540 281.750 C 396.916 276.093 396.581 276.329 393.250 283.362 "/></g>
<g fill="#C6FEFEFE" stroke="#C6FEFEFE">
<path d="M 304.500 124.000 C 309.139 125.180 315.827 125.180 314.000 124.000 C 313.175 123.467 310.025 123.077 307.000 123.134 C 302.405 123.220 301.994 123.362 304.500 124.000 "/></g>
<g fill="#C6FEFEFE" stroke="#C6FEFEFE">
<path d="M 485.000 78.000 C 485.825 78.533 487.203 78.976 488.061 78.985 C 488.920 78.993 490.518 79.788 491.612 80.750 C 494.506 83.295 498.380 85.423 497.485 83.976 C 496.250 81.977 487.718 76.999 485.554 77.015 C 483.862 77.028 483.764 77.201 485.000 78.000 "/></g>
<g fill="#C6FEFEFE" stroke="#C6FEFEFE">
<path d="M 351.750 329.538 C 349.688 330.859 348.000 331.659 348.000 331.315 C 348.000 330.971 347.100 331.505 346.000 332.500 C 344.900 333.495 344.000 333.925 344.000 333.455 C 344.000 332.985 343.460 333.140 342.800 333.800 C 340.865 335.735 343.322 335.253 348.155 332.750 C 350.545 331.513 353.175 329.743 354.000 328.818 C 354.902 327.807 354.004 328.094 351.750 329.538 "/></g>
<g fill="#C6FEFEFE" stroke="#C6FEFEFE">
<path d="M 397.000 193.935 C 397.000 194.449 397.490 196.137 398.089 197.685 C 398.688 199.233 399.349 201.348 399.557 202.385 C 400.206 205.605 401.000 205.485 401.000 202.167 C 401.000 200.425 400.550 199.000 400.000 199.000 C 399.450 199.000 399.000 197.650 399.000 196.000 C 399.000 194.350 398.550 193.000 398.000 193.000 C 397.450 193.000 397.000 193.421 397.000 193.935 "/></g>
<g fill="#C6FEFEFE" stroke="#C6FEFEFE">
<path d="M 317.032 446.821 C 316.976 449.131 322.509 453.033 325.736 452.960 C 326.742 452.937 325.837 452.090 323.632 450.989 C 321.504 449.927 319.156 448.258 318.413 447.279 C 317.513 446.093 317.053 445.940 317.032 446.821 "/></g>
<g fill="#C6FEFEFE" stroke="#C6FEFEFE">
<path d="M 318.364 191.581 C 319.266 192.726 319.703 193.963 319.336 194.331 C 318.968 194.699 319.431 195.000 320.365 195.000 C 321.299 195.000 322.363 195.788 322.731 196.750 C 323.630 199.105 327.000 202.664 327.000 201.258 C 327.000 200.643 324.688 197.746 321.862 194.820 C 319.036 191.894 317.462 190.437 318.364 191.581 "/></g>
<g fill="#C6FEFEFE" stroke="#C6FEFEFE">
<path d="M 401.073 209.000 C 401.096 210.375 401.488 213.300 401.943 215.500 L 402.770 219.500 402.870 214.500 C 402.925 211.750 402.533 208.825 402.000 208.000 C 401.235 206.817 401.040 207.028 401.073 209.000 "/></g>
<g fill="#C6FEFEFE" stroke="#C6FEFEFE">
<path d="M 283.000 178.000 C 284.375 178.440 287.300 178.801 289.500 178.801 C 292.918 178.801 293.136 178.684 291.000 178.000 C 289.625 177.560 286.700 177.199 284.500 177.199 C 281.082 177.199 280.864 177.316 283.000 178.000 "/></g>
<g fill="#C6FEFEFE" stroke="#C6FEFEFE">
<path d="M 343.000 133.681 C 343.000 134.147 344.913 135.410 347.250 136.487 C 349.588 137.565 351.838 138.608 352.250 138.806 C 352.663 139.005 353.000 138.785 353.000 138.319 C 353.000 137.853 351.088 136.590 348.750 135.513 C 346.413 134.435 344.163 133.392 343.750 133.194 C 343.338 132.995 343.000 133.215 343.000 133.681 "/></g>
<g fill="#0078C0FE" stroke="#0078C0FE">
<path d="M 45.068 505.191 C 45.030 506.671 45.450 508.160 46.000 508.500 C 46.550 508.840 47.000 509.943 47.000 510.952 C 47.000 511.961 47.658 513.038 48.462 513.347 C 49.729 513.833 49.742 513.481 48.563 510.704 C 47.815 508.942 46.737 506.375 46.169 505.000 L 45.135 502.500 45.068 505.191 "/></g>
<g fill="#C6FEFEFE" stroke="#C6FEFEFE">
<path d="M 529.675 403.406 C 529.316 404.340 529.416 404.861 529.895 404.565 C 530.674 404.083 533.289 408.933 533.635 411.500 C 533.709 412.050 533.821 412.301 533.885 412.059 C 533.948 411.816 534.693 412.491 535.541 413.559 C 536.388 414.626 535.561 412.397 533.704 408.604 C 531.231 403.555 530.152 402.162 529.675 403.406 "/></g>
<g fill="#C6FEFEFE" stroke="#C6FEFEFE">
<path d="M 371.187 394.472 C 369.915 395.173 369.015 395.993 369.187 396.294 C 369.359 396.594 368.490 398.001 367.257 399.420 C 363.561 403.670 365.853 402.335 370.552 397.500 C 375.057 392.865 375.182 392.269 371.187 394.472 "/></g>
<g fill="#C6FEFEFE" stroke="#C6FEFEFE">
<path d="M 294.483 179.972 C 294.832 180.538 296.441 181.000 298.059 181.000 C 299.677 181.000 301.000 181.450 301.000 182.000 C 301.000 182.550 302.013 182.982 303.250 182.960 C 305.420 182.921 305.407 182.869 302.883 181.498 C 299.480 179.648 293.626 178.585 294.483 179.972 "/></g>
<g fill="#C6FEFEFE" stroke="#C6FEFEFE">
<path d="M 306.000 183.474 C 306.000 183.735 307.440 184.694 309.201 185.604 C 310.962 186.514 313.099 187.940 313.951 188.772 C 315.193 189.984 315.451 190.008 315.253 188.892 C 314.928 187.067 306.000 181.839 306.000 183.474 "/></g>
<g fill="#C6FEFEFE" stroke="#C6FEFEFE">
<path d="M 537.314 522.750 C 536.264 523.713 536.050 524.057 536.839 523.515 C 537.627 522.973 540.573 522.249 543.386 521.906 L 548.500 521.282 543.861 521.141 C 540.683 521.044 538.621 521.551 537.314 522.750 "/></g>
<g fill="#C6FEFEFE" stroke="#C6FEFEFE">
<path d="M 302.500 286.000 C 302.160 286.550 300.810 287.000 299.500 287.000 C 298.190 287.000 296.840 287.450 296.500 288.000 C 295.681 289.326 297.232 289.264 300.685 287.834 C 302.233 287.192 303.800 286.630 304.167 286.584 C 305.707 286.390 306.198 285.000 304.726 285.000 C 303.841 285.000 302.840 285.450 302.500 286.000 "/></g>
<g fill="#C6FEFEFE" stroke="#C6FEFEFE">
<path d="M 329.501 208.750 C 329.895 209.713 330.698 212.075 331.286 214.000 C 331.881 215.949 332.513 216.815 332.711 215.954 C 333.092 214.304 330.374 207.000 329.380 207.000 C 329.053 207.000 329.108 207.788 329.501 208.750 "/></g>
<g fill="#C6FEFEFE" stroke="#C6FEFEFE">
<path d="M 335.500 131.000 C 339.523 132.862 342.923 133.589 341.648 132.315 C 340.791 131.457 333.848 129.010 332.500 129.089 C 331.950 129.122 333.300 129.982 335.500 131.000 "/></g>
<g fill="#C6FEFEFE" stroke="#C6FEFEFE">
<path d="M 366.214 524.000 C 367.074 525.375 368.322 528.218 368.988 530.317 C 369.654 532.416 370.378 533.955 370.597 533.737 C 371.362 532.971 367.839 524.111 366.252 522.812 C 364.787 521.612 364.784 521.713 366.214 524.000 "/></g>
<g fill="#C6FEFEFE" stroke="#C6FEFEFE">
<path d="M 569.180 522.502 C 570.105 523.603 571.038 526.528 571.256 529.002 L 571.651 533.500 571.825 528.905 C 571.965 525.240 571.545 523.924 569.750 522.405 C 567.517 520.515 567.513 520.515 569.180 522.502 "/></g>
<g fill="#C6FEFEFE" stroke="#C6FEFEFE">
<path d="M 322.200 462.352 C 321.485 462.983 320.473 463.556 319.950 463.625 C 319.428 463.694 319.309 463.806 319.687 463.875 C 320.065 463.944 319.085 465.345 317.510 466.990 C 315.935 468.634 314.838 470.168 315.073 470.398 C 315.308 470.628 317.300 468.654 319.500 466.010 C 321.700 463.367 322.915 461.720 322.200 462.352 "/></g>
<g fill="#C6FEFEFE" stroke="#C6FEFEFE">
<path d="M 569.500 460.913 C 570.600 462.176 571.388 463.388 571.250 463.605 C 571.113 463.822 571.000 463.697 571.000 463.326 C 571.000 462.955 572.123 463.707 573.496 464.996 C 574.869 466.286 576.208 467.125 576.471 466.862 C 576.735 466.598 574.824 464.635 572.225 462.499 C 569.626 460.363 568.400 459.649 569.500 460.913 "/></g>
<g fill="#C6FEFEFE" stroke="#C6FEFEFE">
<path d="M 560.872 453.250 C 561.627 454.213 561.875 455.000 561.422 455.000 C 559.819 455.000 563.005 457.378 565.020 457.685 C 566.583 457.924 566.173 457.230 563.283 454.749 C 561.203 452.962 560.118 452.288 560.872 453.250 "/></g>
<g fill="#C6FEFEFE" stroke="#C6FEFEFE">
<path d="M 324.143 439.348 C 322.846 440.728 322.023 442.452 322.314 443.179 C 322.654 444.031 322.870 443.857 322.921 442.691 C 322.964 441.696 323.399 441.129 323.887 441.430 C 324.954 442.090 326.647 440.026 326.561 438.169 C 326.524 437.365 325.568 437.831 324.143 439.348 "/></g>
<g fill="#C6FEFEFE" stroke="#C6FEFEFE">
<path d="M 346.000 429.525 C 346.000 429.813 347.198 430.505 348.663 431.062 C 351.371 432.092 354.176 430.843 352.629 429.296 C 352.223 428.890 351.522 429.155 351.071 429.886 C 350.496 430.815 350.045 430.881 349.566 430.107 C 348.883 429.002 346.000 428.531 346.000 429.525 "/></g>
<g fill="#C6FEFEFE" stroke="#C6FEFEFE">
<path d="M 326.211 430.538 C 324.657 432.300 324.454 432.299 330.000 430.552 L 334.500 429.134 331.000 429.105 C 329.075 429.089 326.920 429.734 326.211 430.538 "/></g>
<g fill="#C6FEFEFE" stroke="#C6FEFEFE">
<path d="M 371.642 314.725 C 368.604 317.412 367.480 318.914 368.642 318.737 C 369.664 318.581 370.578 318.095 370.674 317.657 C 370.769 317.219 372.119 315.413 373.674 313.645 C 375.757 311.275 375.223 311.559 371.642 314.725 "/></g>
<g fill="#C6FEFEFE" stroke="#C6FEFEFE">
<path d="M 287.000 290.047 C 285.159 290.671 285.780 290.792 289.358 290.506 C 292.029 290.293 294.467 289.866 294.774 289.559 C 295.616 288.717 289.855 289.079 287.000 290.047 "/></g>
<g fill="#C6FEFEFE" stroke="#C6FEFEFE">
<path d="M 317.500 126.000 C 320.308 127.207 324.246 127.207 323.500 126.000 C 323.160 125.450 321.221 125.032 319.191 125.070 C 316.216 125.127 315.888 125.307 317.500 126.000 "/></g>
<g fill="#C6FEFEFE" stroke="#C6FEFEFE">
<path d="M 515.118 91.691 C 515.183 92.686 515.580 94.850 516.000 96.500 C 516.721 99.334 516.770 99.268 516.882 95.309 C 516.947 93.004 516.550 90.840 516.000 90.500 C 515.450 90.160 515.053 90.696 515.118 91.691 "/></g>
<g fill="#C6FEFEFE" stroke="#C6FEFEFE">
<path d="M 330.500 463.296 C 328.300 465.580 327.400 466.705 328.500 465.796 C 329.600 464.887 330.950 464.110 331.500 464.071 C 332.050 464.032 332.504 463.663 332.508 463.250 C 332.513 462.838 332.963 461.745 333.508 460.821 C 334.054 459.898 332.700 461.012 330.500 463.296 "/></g>
<g fill="#C6FEFEFE" stroke="#C6FEFEFE">
<path d="M 339.323 455.029 C 336.986 457.098 336.520 457.986 337.561 458.385 C 338.339 458.684 338.869 458.402 338.738 457.759 C 338.607 457.117 339.175 456.570 340.000 456.545 C 340.825 456.520 341.536 456.050 341.579 455.500 C 341.622 454.950 341.847 453.986 342.079 453.358 C 342.311 452.729 341.070 453.481 339.323 455.029 "/></g>
<g fill="#C6FEFEFE" stroke="#C6FEFEFE">
<path d="M 576.573 438.000 C 577.066 438.825 577.476 439.838 577.485 440.250 C 577.493 440.663 577.950 440.973 578.500 440.941 C 579.050 440.909 579.793 441.921 580.150 443.191 C 580.748 445.312 580.809 445.331 580.900 443.424 C 580.955 442.283 579.802 440.258 578.339 438.924 C 576.875 437.591 576.081 437.175 576.573 438.000 "/></g>
<g fill="#C6FEFEFE" stroke="#C6FEFEFE">
<path d="M 369.754 408.008 L 367.500 413.128 370.145 408.314 C 371.600 405.666 373.175 403.709 373.645 403.964 C 374.115 404.218 373.939 404.081 373.254 403.657 C 372.397 403.127 371.306 404.484 369.754 408.008 "/></g>
<g fill="#C6FEFEFE" stroke="#C6FEFEFE">
<path d="M 393.000 183.378 C 393.000 183.586 393.772 185.498 394.716 187.628 C 396.562 191.792 396.794 191.405 395.540 186.250 C 395.106 184.463 394.356 183.000 393.875 183.000 C 393.394 183.000 393.000 183.170 393.000 183.378 "/></g>
<g fill="#C6FEFEFE" stroke="#C6FEFEFE">
<path d="M 540.593 562.850 C 539.869 564.022 542.985 566.740 545.500 567.130 C 546.702 567.317 546.379 566.954 544.690 566.222 C 543.144 565.552 542.139 564.584 542.456 564.071 C 542.773 563.558 542.606 562.875 542.085 562.553 C 541.564 562.231 540.893 562.365 540.593 562.850 "/></g>
<g fill="#C6FEFEFE" stroke="#C6FEFEFE">
<path d="M 517.507 486.826 C 517.137 487.197 517.208 487.501 517.667 487.503 C 518.125 487.505 520.117 488.743 522.094 490.253 C 524.071 491.764 526.018 493.000 526.421 493.000 C 526.824 493.000 525.135 491.459 522.667 489.576 C 520.200 487.693 517.878 486.455 517.507 486.826 "/></g>
<g fill="#C6FEFEFE" stroke="#C6FEFEFE">
<path d="M 329.791 453.676 C 330.716 454.047 330.461 454.733 328.888 456.097 C 326.057 458.553 327.444 458.582 330.558 456.133 C 333.019 454.197 332.824 452.942 330.083 453.079 C 328.990 453.133 328.900 453.318 329.791 453.676 "/></g>
<g fill="#C6FEFEFE" stroke="#C6FEFEFE">
<path d="M 565.000 448.049 C 563.314 448.622 564.128 448.711 567.500 448.321 C 570.250 448.004 572.688 447.576 572.917 447.372 C 573.704 446.669 567.498 447.200 565.000 448.049 "/></g>
</svg>
